<svg xmlns="http://www.w3.org/2000/svg" xmlns:xlink="http://www.w3.org/1999/xlink" width="1533" height="258" viewBox="0 0 1533 258">
  <defs>
    <clipPath id="clip-맞춤형_크기_3">
      <rect width="1533" height="258"/>
    </clipPath>
  </defs>
  <g id="맞춤형_크기_3" data-name="맞춤형 크기 – 3" clip-path="url(#clip-맞춤형_크기_3)">
    <path id="빼기_3" data-name="빼기 3" d="M-3908.133-992.164a116.634,116.634,0,0,1-32.046-4.209,86.485,86.485,0,0,1-26.343-12.48c-15.724-11.152-27.011-27.6-33.547-48.883a4,4,0,0,1,.047-3.321,4.411,4.411,0,0,1,2.995-2.087l28.091-6.752h11.824a7.664,7.664,0,0,1,.645,1.344,63.387,63.387,0,0,0,7.7,14.091,41.286,41.286,0,0,0,10.262,9.907,42.5,42.5,0,0,0,13.367,5.851,68.094,68.094,0,0,0,17.011,1.923c12.5,0,22.3-2.09,29.11-6.211,7.374-4.459,11.112-11.24,11.112-20.153a27.888,27.888,0,0,0-.8-6.752h47.911c.138,2.187.208,4.458.208,6.752a64.685,64.685,0,0,1-6.406,28.487,66.322,66.322,0,0,1-17.972,22.467,84.483,84.483,0,0,1-27.668,14.735A115.439,115.439,0,0,1-3908.133-992.164Zm-932.618-.592a5.349,5.349,0,0,1-1.919-.382l-35.515-13.632a4.21,4.21,0,0,1-2.611-5.861l21.982-57.266h50.468l-28.464,74.15A4.2,4.2,0,0,1-4840.751-992.756Zm1223.974-4.14h-160.889a4.076,4.076,0,0,1-4.393-4.394V-1069.9h45.63v30.075h119.653a4.076,4.076,0,0,1,4.393,4.393v34.138A4.077,4.077,0,0,1-3616.777-996.9Zm-407.967,0h-41.574a5.262,5.262,0,0,1-5.07-3.042l-38.218-69.958h50.862l37.041,67.593a3.9,3.9,0,0,1,.359,3.882A3.716,3.716,0,0,1-4024.744-996.9Zm-143.65,0h-36.842a4.077,4.077,0,0,1-4.395-4.394V-1069.9H-4164v68.606A4.076,4.076,0,0,1-4168.394-996.9Zm-85.515,0H-4414.8a4.076,4.076,0,0,1-4.393-4.394V-1069.9h45.63v30.075h119.651a4.076,4.076,0,0,1,4.393,4.393v34.138A4.076,4.076,0,0,1-4253.908-996.9Zm-301.834,0h-31.433a5.416,5.416,0,0,1-3.042-.8,5.525,5.525,0,0,1-2.028-2.577l-28.182-69.621h45.846l3.63,9.794,3.611-9.794h44.851l-28.182,69.621a5.527,5.527,0,0,1-2.028,2.577A5.417,5.417,0,0,1-4555.743-996.9Zm-508.351,0h-82.473a4.076,4.076,0,0,1-4.393-4.394V-1069.9h45.63v30.075h36.166a128.4,128.4,0,0,0,22.962-1.941,88.015,88.015,0,0,0,19.291-5.741,66.865,66.865,0,0,0,15.6-9.419,61.244,61.244,0,0,0,11.89-12.974h53.117c-7.9,23.444-21.826,41.594-41.389,53.947C-5007.714-1003.307-5033.419-996.9-5064.093-996.9Zm484.321-87v0H-4626.1l-28.335-70h48.721l25.94,70Zm-362.672,0h-49.7a87.962,87.962,0,0,0,4.593-17.219,122.052,122.052,0,0,0,1.535-19.827,107.564,107.564,0,0,0-4.682-32.954h49.109a179.06,179.06,0,0,1,2.893,32.954,173.841,173.841,0,0,1-3.749,37.046Zm-162.886,0h-45.63v-70h45.63v70Zm588.506,0h-45.355l25.81-70h47.882l-28.336,70Zm-286.149,0h-50.467l26.871-70h50.467l-26.871,70Zm1066.543,0h-45.63v-70h45.63v8.28h104.443a4.076,4.076,0,0,1,4.393,4.394v33.462a4.076,4.076,0,0,1-4.393,4.394H-3736.43v19.468Zm-86.39,0h-54.751a60.126,60.126,0,0,0-13.057-8.595,156.426,156.426,0,0,0-17.843-7.5l-21.97-7.773a152.8,152.8,0,0,1-20.028-8.387,105.853,105.853,0,0,1-16.619-10.428,76.759,76.759,0,0,1-12.9-12.555,63.2,63.2,0,0,1-8.882-14.767h64.4a156.293,156.293,0,0,0,19.723,7.942l17.575,5.745a176.387,176.387,0,0,1,24.593,10,95.427,95.427,0,0,1,18.866,12.273,61.937,61.937,0,0,1,20.9,34.033Zm-243.594,0H-4209.63v-70H-4164v39.714h32.11c17.328,0,29.905-3.082,38.451-9.421,8.709-6.461,13.337-16.37,14.148-30.293h47.361c-1.156,29.748-13.632,52.948-36.078,67.093l1.592,2.906h0Zm-307.145,0h-45.63v-70h45.63v8.28h104.441a4.076,4.076,0,0,1,4.393,4.394v33.462a4.076,4.076,0,0,1-4.393,4.394H-4373.56v19.468Zm-237.338-84h-49.2l-29.154-72.023a3.673,3.673,0,0,1-.024-3.579,3.859,3.859,0,0,1,3.4-1.49h42.587a6.018,6.018,0,0,1,3.169.8,4.313,4.313,0,0,1,1.9,2.576l27.316,73.713Zm874.468,0h-45.63v-72.7a4.076,4.076,0,0,1,4.393-4.393h156.832a4.077,4.077,0,0,1,4.394,4.393v34.138a4.077,4.077,0,0,1-4.394,4.394h-115.6v34.166Zm-427.571,0h-45.63v-72.7a4.077,4.077,0,0,1,4.395-4.393h75.036a192.643,192.643,0,0,1,22.646,1.258,131.911,131.911,0,0,1,19.5,3.745,93.455,93.455,0,0,1,16.441,6.185,72.006,72.006,0,0,1,13.473,8.579,63.934,63.934,0,0,1,10.595,10.926,67.534,67.534,0,0,1,7.805,13.227,83.106,83.106,0,0,1,5.106,15.482,112.777,112.777,0,0,1,2.5,17.689h-47.614c-1.636-12.176-6.643-20.861-15.308-26.552-8.494-5.579-20.541-8.291-36.829-8.291H-4164v34.843Zm-209.559,0h-45.63v-72.7a4.076,4.076,0,0,1,4.393-4.393h156.833a4.077,4.077,0,0,1,4.395,4.393v34.138a4.077,4.077,0,0,1-4.395,4.394h-115.6v34.166Zm-571.4,0h-51.891a62.017,62.017,0,0,0-11.753-14.722,64.965,64.965,0,0,0-15.987-10.7,85.107,85.107,0,0,0-20.194-6.531,126.7,126.7,0,0,0-24.378-2.211h-36.166v34.166h-45.63v-72.7a4.076,4.076,0,0,1,4.393-4.393h82.473c31.616,0,57.91,6.76,78.151,20.092,19.811,13.048,33.6,32.226,40.981,57Zm1002.431,0h-50.444a72.188,72.188,0,0,1-1.012-12.2,63.119,63.119,0,0,1,6.385-27.99,66.469,66.469,0,0,1,17.57-22.034,82.172,82.172,0,0,1,26.379-14.429,102.83,102.83,0,0,1,32.812-5.176c21.19,0,39.187,4.975,53.49,14.788,14.934,10.246,25.6,25.626,31.688,45.714a4,4,0,0,1-.047,3.32,4.413,4.413,0,0,1-3,2.088l-37.179,9.465a6.252,6.252,0,0,1-1.5.2,3.488,3.488,0,0,1-2.342-.811,5.688,5.688,0,0,1-1.563-2.434c-3.985-9.963-9.167-16.983-15.843-21.462a34.487,34.487,0,0,0-10.822-4.775,51.318,51.318,0,0,0-12.882-1.479c-10.657,0-19.657,2.206-26.025,6.38-6.413,4.2-9.8,10.178-9.8,17.28a23.147,23.147,0,0,0,4.135,13.547Zm-540.291,0h-48.387l27.179-73.713a4.309,4.309,0,0,1,1.9-2.576,6.021,6.021,0,0,1,3.169-.8h41.912a3.86,3.86,0,0,1,3.4,1.49,3.673,3.673,0,0,1-.023,3.579l-29.154,72.023Zm-287.907,0h-50.467l28.949-75.416a4.2,4.2,0,0,1,3.943-2.991,5.362,5.362,0,0,1,1.919.382l35.515,13.632a4.559,4.559,0,0,1,2.658,2.328,4.559,4.559,0,0,1-.048,3.532l-22.468,58.532Z" transform="translate(5150.959 1249.721)" stroke="rgba(0,0,0,0)" stroke-miterlimit="10" stroke-width="1"/>
  </g>
</svg>
